# xmcd
# 
# Track frame offsets:
#     150
#     23450
#     52828
#     78630
#     100850
#     125875
#     142387
#     168330
#     192251
# 
# Disc length: 2850
# 
# Revision: 1
# Processed by: cddbd v1.5.2PL0 Copyright (c) Steve Scherf et al.
# Submitted via: BonkEnc v1.0.8
# 
DISCID=780b2009
DTITLE=Sex Mob - Sexotica
DYEAR=2005
DGENRE=Contemporary Jazz
TTITLE0=Pygmy Suite
TTITLE1=Martin Denny
TTITLE2=Exotique
TTITLE3=Luvin' Blume
TTITLE4=Quiet
TTITLE5=Oakland
TTITLE6=Dick Contino's Blues
TTITLE7=Kid Rock Deluxe
TTITLE8=7 Bars
EXTD=YEAR: 2006
EXTT0=
EXTT1=
EXTT2=
EXTT3=
EXTT4=
EXTT5=
EXTT6=
EXTT7=
EXTT8=
PLAYORDER=
